<?xml version="1.0" encoding="UTF-8"?>
<svg width="26px" height="35px" viewBox="0 0 26 35" version="1.1" xmlns="http://www.w3.org/2000/svg" xmlns:xlink="http://www.w3.org/1999/xlink">
    <!-- Generator: Sketch 51.3 (57544) - http://www.bohemiancoding.com/sketch -->
    <title>about</title>
    <desc>Created with Sketch.</desc>
    <defs></defs>
    <g id="Page-1" stroke="none" stroke-width="1" fill="none" fill-rule="evenodd">
        <g id="landing-page" transform="translate(-238.000000, -61.000000)" fill="#767676" fill-rule="nonzero">
            <g id="Group" transform="translate(98.000000, 61.000000)">
                <g id="about" transform="translate(140.000000, 0.000000)">
                    <path d="M13.5000996,16.74 C17.3769201,16.74 20.52,12.9926606 20.52,8.3700489 C20.52,3.74733936 19.4880807,0 13.5000996,0 C7.51211853,0 6.48,3.74733936 6.48,8.3700489 C6.48,12.9926606 9.62307987,16.74 13.5000996,16.74 Z" id="Shape"></path>
                    <path d="M0.00374122974,29.97 C0.000501229744,29.4446187 -0.00273877026,29.8219745 0.00374122974,29.97 Z" id="Shape"></path>
                    <path d="M25.9054905,29.5452884 C25.7784107,21.5434013 24.731195,19.2632978 16.7175703,17.82 C16.7175703,17.82 15.5895299,19.2544545 12.9602921,19.2544545 C10.3310543,19.2544545 9.20281919,17.82 9.20281919,17.82 C1.27664102,19.2475549 0.16573936,21.4938401 0.0196705939,29.2853354 C0.00769295504,29.9215643 0.00214234191,29.9549937 0,29.8811379 C0.000486895888,30.0195204 0.00107117095,30.275489 0.00107117095,30.7218307 C0.00107117095,30.7218307 1.90892402,34.56 12.9602921,34.56 C24.0114655,34.56 25.9195131,30.7218307 25.9195131,30.7218307 C25.9195131,30.4350564 25.9197079,30.2356458 25.92,30.0999843 C25.9178577,30.1456583 25.913573,30.0571285 25.9054905,29.5452884 Z" id="Shape"></path>
                </g>
            </g>
        </g>
    </g>
</svg>