<?xml version="1.0" encoding="UTF-8"?>
<svg width="391px" height="331px" viewBox="0 0 391 331" version="1.1" xmlns="http://www.w3.org/2000/svg" xmlns:xlink="http://www.w3.org/1999/xlink">
    <!-- Generator: Sketch 51.3 (57544) - http://www.bohemiancoding.com/sketch -->
    <title>medium</title>
    <desc>Created with Sketch.</desc>
    <defs></defs>
    <g id="Page-1" stroke="none" stroke-width="1" fill="none" fill-rule="evenodd">
        <g id="medium" fill="#767676" fill-rule="nonzero">
            <path d="M130.260603,61.7895778 L130.260603,317.899736 C130.260603,321.538698 129.351469,324.631816 127.533203,327.17909 C125.714937,329.726363 123.060268,331 119.569196,331 C117.096354,331 114.696243,330.417766 112.368862,329.253298 L10.9095982,278.380607 C7.85491071,276.925022 5.27297247,274.486917 3.16378348,271.066293 C1.05459449,267.645668 0,264.261434 0,260.913588 L0,12.0085752 C0,9.09740545 0.727306548,6.62291117 2.18191964,4.58509235 C3.63653274,2.54727353 5.74572173,1.52836412 8.50948661,1.52836412 C10.5459449,1.52836412 13.7460937,2.62005277 18.109933,4.80343008 L129.606027,60.6978892 C130.042411,61.1345646 130.260603,61.4984609 130.260603,61.7895778 Z M144.224888,83.8416887 L260.739397,272.922164 L144.224888,214.844327 L144.224888,83.8416887 Z M391,87.7717678 L391,317.899736 C391,321.538698 389.981771,324.486258 387.945312,326.742414 C385.908854,328.998571 383.145089,330.126649 379.654018,330.126649 C376.162946,330.126649 372.744606,329.180519 369.398996,327.288259 L273.176339,279.253958 L391,87.7717678 Z M390.345424,61.5712401 C390.345424,62.0079156 371.690011,92.5388083 334.379185,153.163918 C297.068359,213.789028 275.212798,249.268909 268.8125,259.603562 L183.717634,121.177441 L254.41183,6.11345646 C256.884673,2.03781882 260.666667,0 265.757813,0 C267.794271,0 269.685268,0.436675462 271.430804,1.31002639 L389.472656,60.2612137 C390.054501,60.5523307 390.345424,60.9890062 390.345424,61.5712401 Z" id="Shape"></path>
        </g>
    </g>
</svg>